# xmcd
#
# Track frame offsets:
#	150
#	14105
#	25832
#	41335
#	55212
#	72655
#	84157
#	97110
#	109445
#	124667
#	139897
#	155170
#
# Disc length: 2246 seconds
#
# Revision: 0
# Processed by: cddbd v1.4PL0 Copyright (c) Steve Scherf et al.
# Submitted via: audiograbber 1.80.04
#
DISCID=ac08c40c
DTITLE=Various Artist - New Country  [CD1 of 2)
DYEAR=1900
DGENRE=
TTITLE0=Alan Jackson - Chasin' That Neon Rainbow
TTITLE1=Dwight Yoakam - It Only Hurts When  I Cry
TTITLE2=Dolly Parton - Think About Love
TTITLE3=Aaron Tippin - You've Got To Stand For Something
TTITLE4=Mary - Chapin Carpenter
TTITLE5=Travis Tritt - Here's A Quarter (Call Someone Who Cares)
TTITLE6=Kentucky Headhunters - Dumas Walker
TTITLE7=Tanya Tucker - Strong Enough To Bend
TTITLE8=Ricky Van Shelton - Living Proof
TTITLE9=Kathy Mattea - Eighteen Wheels And A Dozen Roses
TTITLE10=Nitty Gritty Dirt Band, The - Fishin' In The Dark
TTITLE11=Hal Ketchum - Small Town Saturday Night
EXTD=
EXTT0=
EXTT1=
EXTT2=
EXTT3=
EXTT4=
EXTT5=
EXTT6=
EXTT7=
EXTT8=
EXTT9=
EXTT10=
EXTT11=
PLAYORDER=
